<svg width="37" height="37" viewBox="0 0 37 37" fill="none" xmlns="http://www.w3.org/2000/svg">
<g clip-path="url(#clip0_79_71)">
<path d="M11.5625 18.5C11.5625 19.1133 11.3189 19.7015 10.8852 20.1352C10.4515 20.5689 9.86331 20.8125 9.25 20.8125C8.63669 20.8125 8.04849 20.5689 7.61482 20.1352C7.18114 19.7015 6.9375 19.1133 6.9375 18.5C6.9375 17.8867 7.18114 17.2985 7.61482 16.8648C8.04849 16.4311 8.63669 16.1875 9.25 16.1875C9.86331 16.1875 10.4515 16.4311 10.8852 16.8648C11.3189 17.2985 11.5625 17.8867 11.5625 18.5ZM20.8125 18.5C20.8125 19.1133 20.5689 19.7015 20.1352 20.1352C19.7015 20.5689 19.1133 20.8125 18.5 20.8125C17.8867 20.8125 17.2985 20.5689 16.8648 20.1352C16.4311 19.7015 16.1875 19.1133 16.1875 18.5C16.1875 17.8867 16.4311 17.2985 16.8648 16.8648C17.2985 16.4311 17.8867 16.1875 18.5 16.1875C19.1133 16.1875 19.7015 16.4311 20.1352 16.8648C20.5689 17.2985 20.8125 17.8867 20.8125 18.5ZM27.75 20.8125C28.3633 20.8125 28.9515 20.5689 29.3852 20.1352C29.8189 19.7015 30.0625 19.1133 30.0625 18.5C30.0625 17.8867 29.8189 17.2985 29.3852 16.8648C28.9515 16.4311 28.3633 16.1875 27.75 16.1875C27.1367 16.1875 26.5485 16.4311 26.1148 16.8648C25.6811 17.2985 25.4375 17.8867 25.4375 18.5C25.4375 19.1133 25.6811 19.7015 26.1148 20.1352C26.5485 20.5689 27.1367 20.8125 27.75 20.8125Z" fill="#005384"/>
<path d="M5.00656 36.5444L5.05281 36.5352C9.28469 35.6958 11.8701 34.5881 13.0726 33.9799C14.843 34.4521 16.6677 34.69 18.5 34.6875C28.7166 34.6875 37 27.4401 37 18.5C37 9.55988 28.7166 2.3125 18.5 2.3125C8.28337 2.3125 0 9.55988 0 18.5C0 22.57 1.71819 26.2931 4.55562 29.1375C4.35711 30.9646 3.95056 32.763 3.34387 34.4979L3.33694 34.5233C3.16453 35.0202 2.97635 35.5115 2.77269 35.9964C2.59 36.4265 2.94381 36.9075 3.404 36.8335C3.93972 36.7458 4.47398 36.6495 5.00656 36.5444ZM6.85656 29.3572C6.88895 29.0186 6.84627 28.6771 6.73155 28.3569C6.61683 28.0368 6.43291 27.7458 6.19287 27.5049C3.74163 25.0444 2.3125 21.8948 2.3125 18.5C2.3125 11.1185 9.25925 4.625 18.5 4.625C27.7407 4.625 34.6875 11.1185 34.6875 18.5C34.6875 25.8838 27.7407 32.375 18.5 32.375C16.8699 32.3774 15.2466 32.1659 13.6715 31.746C13.1211 31.5985 12.5356 31.6595 12.0273 31.9171C11.1324 32.3704 9.15981 33.2352 5.93619 33.9822C6.38591 32.4724 6.69404 30.9241 6.85656 29.3572Z" fill="#005384"/>
</g>
<defs>
<clipPath id="clip0_79_71">
<rect width="37" height="37" fill="white"/>
</clipPath>
</defs>
</svg>
