<svg width="39" height="39" viewBox="0 0 39 39" fill="none" xmlns="http://www.w3.org/2000/svg">
<circle cx="18.9428" cy="20.0571" r="17.8286" fill="#EEEEEE"/>
<path d="M19.5 36.5625C14.9747 36.5625 10.6348 34.7648 7.43499 31.565C4.23515 28.3652 2.4375 24.0253 2.4375 19.5C2.4375 14.9747 4.23515 10.6348 7.43499 7.43499C10.6348 4.23515 14.9747 2.4375 19.5 2.4375C24.0253 2.4375 28.3652 4.23515 31.565 7.43499C34.7648 10.6348 36.5625 14.9747 36.5625 19.5C36.5625 24.0253 34.7648 28.3652 31.565 31.565C28.3652 34.7648 24.0253 36.5625 19.5 36.5625ZM19.5 39C24.6717 39 29.6316 36.9455 33.2886 33.2886C36.9455 29.6316 39 24.6717 39 19.5C39 14.3283 36.9455 9.36838 33.2886 5.71142C29.6316 2.05446 24.6717 0 19.5 0C14.3283 0 9.36838 2.05446 5.71142 5.71142C2.05446 9.36838 0 14.3283 0 19.5C0 24.6717 2.05446 29.6316 5.71142 33.2886C9.36838 36.9455 14.3283 39 19.5 39Z" fill="white"/>
<path d="M26.7391 12.1144C26.7217 12.1312 26.7055 12.1491 26.6904 12.168L18.2249 22.9539L13.1232 17.8498C12.7767 17.5269 12.3183 17.3511 11.8447 17.3594C11.3711 17.3678 10.9192 17.5597 10.5843 17.8946C10.2493 18.2296 10.0575 18.6814 10.0491 19.155C10.0408 19.6286 10.2166 20.087 10.5395 20.4336L16.9891 26.8856C17.1629 27.0591 17.3698 27.1957 17.5975 27.2875C17.8252 27.3792 18.069 27.4241 18.3145 27.4196C18.5599 27.415 18.802 27.3611 19.0261 27.261C19.2503 27.1609 19.452 27.0166 19.6192 26.8369L29.3497 14.6737C29.681 14.326 29.8622 13.8618 29.854 13.3816C29.8458 12.9013 29.6489 12.4436 29.3059 12.1073C28.9629 11.771 28.5014 11.5833 28.0211 11.5846C27.5407 11.5859 27.0802 11.7762 26.7391 12.1144Z" fill="#00C9B7"/>
</svg>
