<svg width="24" height="19" viewBox="0 0 24 19" fill="none" xmlns="http://www.w3.org/2000/svg">
<path d="M20.2424 0.63562C20.6539 0.229923 21.2094 0.00159829 21.7888 8.35923e-06C22.3682 -0.00158158 22.9249 0.223691 23.3386 0.627124C23.7523 1.03056 23.9898 1.57973 23.9997 2.15592C24.0096 2.73211 23.791 3.28902 23.3914 3.70624L11.6541 18.299C11.4524 18.5151 11.2089 18.6885 10.9383 18.8089C10.6676 18.9293 10.3753 18.9942 10.0789 18.9996C9.78246 19.0051 9.48796 18.951 9.21302 18.8407C8.93807 18.7304 8.68831 18.566 8.47868 18.3575L0.70185 10.6195C0.485197 10.4187 0.311424 10.1766 0.1909 9.90755C0.0703752 9.6385 0.00556728 9.34807 0.00034318 9.05358C-0.00488092 8.75908 0.0495859 8.46656 0.160493 8.19345C0.271401 7.92035 0.436477 7.67226 0.645874 7.46399C0.855272 7.25571 1.1047 7.09152 1.37928 6.98121C1.65386 6.8709 1.94797 6.81673 2.24405 6.82192C2.54014 6.82712 2.83214 6.89158 3.10264 7.01146C3.37313 7.13133 3.61658 7.30417 3.81846 7.51966L9.97524 13.6404L20.1866 0.699958C20.2048 0.677299 20.2244 0.65581 20.2454 0.63562H20.2424Z" fill="#00A6BB"/>
</svg>
