<svg width="19" height="21" viewBox="0 0 19 21" fill="none" xmlns="http://www.w3.org/2000/svg">
<path d="M0.640675 5.07937L0.593175 3.9375C0.593175 3.24131 0.843397 2.57363 1.2888 2.08134C1.73419 1.58906 2.33829 1.3125 2.96817 1.3125H7.32867C7.95851 1.31265 8.5625 1.58931 9.0078 2.08162L9.99105 3.16838C10.4363 3.66069 11.0403 3.93735 11.6702 3.9375H16.3988C16.7288 3.93746 17.0552 4.01345 17.3572 4.16061C17.6592 4.30778 17.9301 4.52289 18.1527 4.79223C18.3753 5.06156 18.5446 5.37922 18.6499 5.72492C18.7552 6.07062 18.7942 6.43679 18.7643 6.80006L18.0079 15.9876C17.9542 16.6398 17.682 17.2463 17.2445 17.688C16.8071 18.1297 16.2361 18.3747 15.6435 18.375H3.3553C2.76278 18.3747 2.19175 18.1297 1.75431 17.688C1.31687 17.2463 1.04461 16.6398 0.990987 15.9876L0.23455 6.80006C0.183946 6.19209 0.327643 5.58373 0.640675 5.08069V5.07937ZM2.60005 5.25C2.43509 5.24999 2.27194 5.28797 2.12099 5.36151C1.97004 5.43505 1.83462 5.54255 1.72334 5.67714C1.61207 5.81174 1.52738 5.97048 1.47469 6.14326C1.422 6.31603 1.40245 6.49904 1.4173 6.68062L2.17374 15.8681C2.2004 16.1942 2.33638 16.4975 2.55499 16.7185C2.7736 16.9395 3.05905 17.0622 3.3553 17.0625H15.6435C15.9398 17.0622 16.2252 16.9395 16.4439 16.7185C16.6625 16.4975 16.7984 16.1942 16.8251 15.8681L17.5815 6.68062C17.5964 6.49904 17.5769 6.31603 17.5242 6.14326C17.4715 5.97048 17.3868 5.81174 17.2755 5.67714C17.1642 5.54255 17.0288 5.43505 16.8779 5.36151C16.7269 5.28797 16.5638 5.24999 16.3988 5.25H2.60005ZM8.16943 3.00956C8.05904 2.88752 7.92796 2.79074 7.7837 2.72475C7.63943 2.65876 7.48481 2.62486 7.32867 2.625H2.96817C2.6571 2.62494 2.35842 2.75979 2.13636 3.00056C1.9143 3.24134 1.78659 3.56881 1.78067 3.91256L1.7878 4.095C2.04192 3.99262 2.31505 3.9375 2.60005 3.9375H9.0078L8.16824 3.00956H8.16943Z" fill="#B9B9B9"/>
</svg>
