<svg width="21" height="21" viewBox="0 0 21 21" fill="none" xmlns="http://www.w3.org/2000/svg">
<path d="M7.21875 7.21875C7.3928 7.21875 7.55972 7.28789 7.68279 7.41096C7.80586 7.53403 7.875 7.70095 7.875 7.875V15.75C7.875 15.924 7.80586 16.091 7.68279 16.214C7.55972 16.3371 7.3928 16.4062 7.21875 16.4062C7.0447 16.4062 6.87778 16.3371 6.75471 16.214C6.63164 16.091 6.5625 15.924 6.5625 15.75V7.875C6.5625 7.70095 6.63164 7.53403 6.75471 7.41096C6.87778 7.28789 7.0447 7.21875 7.21875 7.21875ZM10.5 7.21875C10.674 7.21875 10.841 7.28789 10.964 7.41096C11.0871 7.53403 11.1562 7.70095 11.1562 7.875V15.75C11.1562 15.924 11.0871 16.091 10.964 16.214C10.841 16.3371 10.674 16.4062 10.5 16.4062C10.326 16.4062 10.159 16.3371 10.036 16.214C9.91289 16.091 9.84375 15.924 9.84375 15.75V7.875C9.84375 7.70095 9.91289 7.53403 10.036 7.41096C10.159 7.28789 10.326 7.21875 10.5 7.21875ZM14.4375 7.875C14.4375 7.70095 14.3684 7.53403 14.2453 7.41096C14.1222 7.28789 13.9553 7.21875 13.7812 7.21875C13.6072 7.21875 13.4403 7.28789 13.3172 7.41096C13.1941 7.53403 13.125 7.70095 13.125 7.875V15.75C13.125 15.924 13.1941 16.091 13.3172 16.214C13.4403 16.3371 13.6072 16.4062 13.7812 16.4062C13.9553 16.4062 14.1222 16.3371 14.2453 16.214C14.3684 16.091 14.4375 15.924 14.4375 15.75V7.875Z" fill="#878787"/>
<path fill-rule="evenodd" clip-rule="evenodd" d="M19.0312 3.9375C19.0312 4.2856 18.893 4.61944 18.6468 4.86558C18.4007 5.11172 18.0668 5.25 17.7188 5.25H17.0625V17.0625C17.0625 17.7587 16.7859 18.4264 16.2937 18.9187C15.8014 19.4109 15.1337 19.6875 14.4375 19.6875H6.5625C5.86631 19.6875 5.19863 19.4109 4.70634 18.9187C4.21406 18.4264 3.9375 17.7587 3.9375 17.0625V5.25H3.28125C2.93315 5.25 2.59931 5.11172 2.35317 4.86558C2.10703 4.61944 1.96875 4.2856 1.96875 3.9375V2.625C1.96875 2.2769 2.10703 1.94306 2.35317 1.69692C2.59931 1.45078 2.93315 1.3125 3.28125 1.3125H7.875C7.875 0.964403 8.01328 0.630564 8.25942 0.384422C8.50556 0.138281 8.8394 0 9.1875 0L11.8125 0C12.1606 0 12.4944 0.138281 12.7406 0.384422C12.9867 0.630564 13.125 0.964403 13.125 1.3125H17.7188C18.0668 1.3125 18.4007 1.45078 18.6468 1.69692C18.893 1.94306 19.0312 2.2769 19.0312 2.625V3.9375ZM5.40488 5.25L5.25 5.32744V17.0625C5.25 17.4106 5.38828 17.7444 5.63442 17.9906C5.88056 18.2367 6.2144 18.375 6.5625 18.375H14.4375C14.7856 18.375 15.1194 18.2367 15.3656 17.9906C15.6117 17.7444 15.75 17.4106 15.75 17.0625V5.32744L15.5951 5.25H5.40488ZM3.28125 3.9375V2.625H17.7188V3.9375H3.28125Z" fill="#878787"/>
</svg>
