<svg width="14" height="12" viewBox="0 0 14 12" fill="none" xmlns="http://www.w3.org/2000/svg">
<path d="M11.8263 1.07624C12.0552 0.858313 12.3599 0.737832 12.6759 0.740224C12.992 0.742615 13.2947 0.867692 13.5203 1.08906C13.7459 1.31043 13.8766 1.61078 13.885 1.92673C13.8934 2.24267 13.7786 2.54951 13.5651 2.78249L7.08132 10.8912C6.96983 11.0113 6.83527 11.1077 6.68569 11.1746C6.5361 11.2415 6.37456 11.2775 6.21073 11.2806C6.0469 11.2836 5.88414 11.2536 5.73218 11.1922C5.58022 11.1309 5.44218 11.0396 5.32632 10.9237L1.02657 6.62399C0.906832 6.51242 0.810791 6.37787 0.744179 6.22837C0.677567 6.07887 0.641749 5.91749 0.638862 5.75384C0.635974 5.5902 0.666077 5.42765 0.727374 5.2759C0.78867 5.12414 0.879905 4.98629 0.995636 4.87056C1.11137 4.75483 1.24922 4.66359 1.40098 4.60229C1.55273 4.541 1.71528 4.51089 1.87892 4.51378C2.04256 4.51667 2.20395 4.55249 2.35345 4.6191C2.50295 4.68571 2.6375 4.78175 2.74907 4.90149L6.15182 8.30262L11.7954 1.11199C11.8056 1.09948 11.8165 1.08755 11.8279 1.07624H11.8263Z" fill="#000333"/>
</svg>
