<svg width="13" height="13" viewBox="0 0 13 13" fill="none" xmlns="http://www.w3.org/2000/svg">
<g clip-path="url(#clip0_79_66)">
<path d="M11.0508 1.88985C10.4548 1.28834 9.74507 0.811459 8.96293 0.486996C8.18079 0.162533 7.34189 -0.00302201 6.49512 -2.09541e-05C2.94694 -2.09541e-05 0.05525 2.89085 0.052 6.43985C0.052 7.57654 0.349375 8.68235 0.910812 9.66142L0 13L3.41575 12.1046C4.36069 12.6188 5.41932 12.8884 6.49512 12.8887H6.49837C10.0474 12.8887 12.9382 9.99779 12.9415 6.44554C12.9423 5.59895 12.7756 4.76057 12.451 3.97869C12.1263 3.19682 11.6502 2.4869 11.05 1.88985H11.0508ZM6.49512 11.7983C5.53556 11.7986 4.59363 11.5404 3.76837 11.0508L3.57337 10.9338L1.547 11.4652L2.08812 9.48835L1.96137 9.28442C1.42497 8.43156 1.14128 7.44413 1.14319 6.4366C1.14319 3.49048 3.54575 1.0871 6.49837 1.0871C7.20179 1.08584 7.8985 1.22383 8.54833 1.4931C9.19816 1.76238 9.78827 2.15762 10.2846 2.65604C10.7827 3.15252 11.1776 3.7427 11.4464 4.39254C11.7153 5.04238 11.8528 5.73903 11.8511 6.44229C11.8479 9.39898 9.44531 11.7983 6.49512 11.7983ZM9.43231 7.78942C9.27225 7.70898 8.48169 7.31979 8.333 7.26454C8.18512 7.21173 8.07706 7.1841 7.97144 7.34498C7.86337 7.50504 7.55463 7.86985 7.462 7.97467C7.36937 8.08273 7.2735 8.09492 7.11262 8.01529C6.95256 7.93404 6.43337 7.76504 5.81913 7.21498C5.33975 6.78842 5.01881 6.26029 4.92294 6.10023C4.83031 5.93935 4.914 5.85323 4.99444 5.77279C5.06512 5.70129 5.1545 5.58429 5.23494 5.49167C5.31619 5.39904 5.343 5.33079 5.39581 5.22354C5.44862 5.11467 5.42344 5.02204 5.38363 4.9416C5.343 4.86117 5.02206 4.06735 4.88637 3.74723C4.75637 3.43117 4.62394 3.47504 4.52481 3.47098C4.43219 3.46529 4.32412 3.46529 4.21606 3.46529C4.13446 3.46732 4.05415 3.48619 3.98019 3.52073C3.90622 3.55526 3.8402 3.60472 3.78625 3.66598C3.63837 3.82685 3.22481 4.21604 3.22481 5.00985C3.22481 5.80367 3.80169 6.5666 3.88294 6.67467C3.96256 6.78273 5.01556 8.40692 6.63162 9.10567C7.0135 9.27223 7.31413 9.37054 7.54894 9.44529C7.93488 9.56879 8.28344 9.5501 8.56131 9.51029C8.87006 9.46317 9.51275 9.12029 9.64844 8.7441C9.78169 8.3671 9.78169 8.04535 9.74106 7.97792C9.70125 7.90967 9.59319 7.86985 9.43231 7.78942Z" fill="white"/>
</g>
<defs>
<clipPath id="clip0_79_66">
<rect width="13" height="13" fill="white"/>
</clipPath>
</defs>
</svg>
