<svg width="32" height="32" viewBox="0 0 32 32" fill="none" xmlns="http://www.w3.org/2000/svg">
<path d="M16 30C12.287 30 8.72601 28.525 6.1005 25.8995C3.475 23.274 2 19.713 2 16C2 12.287 3.475 8.72601 6.1005 6.1005C8.72601 3.475 12.287 2 16 2C19.713 2 23.274 3.475 25.8995 6.1005C28.525 8.72601 30 12.287 30 16C30 19.713 28.525 23.274 25.8995 25.8995C23.274 28.525 19.713 30 16 30ZM16 32C20.2435 32 24.3131 30.3143 27.3137 27.3137C30.3143 24.3131 32 20.2435 32 16C32 11.7565 30.3143 7.68687 27.3137 4.68629C24.3131 1.68571 20.2435 0 16 0C11.7565 0 7.68687 1.68571 4.68629 4.68629C1.68571 7.68687 0 11.7565 0 16C0 20.2435 1.68571 24.3131 4.68629 27.3137C7.68687 30.3143 11.7565 32 16 32Z" fill="#878787"/>
<path d="M14.0039 22C14.0039 21.7374 14.0556 21.4773 14.1561 21.2346C14.2567 20.992 14.404 20.7715 14.5897 20.5858C14.7754 20.4001 14.9959 20.2528 15.2385 20.1522C15.4812 20.0517 15.7413 20 16.0039 20C16.2666 20 16.5266 20.0517 16.7693 20.1522C17.0119 20.2528 17.2324 20.4001 17.4181 20.5858C17.6038 20.7715 17.7512 20.992 17.8517 21.2346C17.9522 21.4773 18.0039 21.7374 18.0039 22C18.0039 22.5304 17.7932 23.0391 17.4181 23.4142C17.043 23.7893 16.5343 24 16.0039 24C15.4735 24 14.9648 23.7893 14.5897 23.4142C14.2146 23.0391 14.0039 22.5304 14.0039 22ZM14.1999 9.99001C14.1733 9.73769 14.2 9.48259 14.2783 9.24126C14.3566 8.99993 14.4848 8.77777 14.6545 8.58918C14.8243 8.40059 15.0318 8.24979 15.2635 8.14657C15.4953 8.04335 15.7462 7.99001 15.9999 7.99001C16.2536 7.99001 16.5045 8.04335 16.7363 8.14657C16.9681 8.24979 17.1755 8.40059 17.3453 8.58918C17.515 8.77777 17.6432 8.99993 17.7215 9.24126C17.7998 9.48259 17.8265 9.73769 17.7999 9.99001L17.0999 17.004C17.0764 17.2795 16.9503 17.5362 16.7466 17.7233C16.5429 17.9103 16.2765 18.0141 15.9999 18.0141C15.7234 18.0141 15.4569 17.9103 15.2532 17.7233C15.0495 17.5362 14.9234 17.2795 14.8999 17.004L14.1999 9.99001Z" fill="#878787"/>
</svg>
