<svg width="48" height="48" viewBox="0 0 48 48" fill="none" xmlns="http://www.w3.org/2000/svg">
<g clip-path="url(#clip0_145_136)">
<path d="M40.2415 36.858C40.2415 37.425 39.859 37.833 39.3085 37.833C38.7415 37.833 38.3755 37.3995 38.3755 36.858C38.3755 36.3165 38.7415 35.883 39.3085 35.883C39.859 35.883 40.2415 36.3165 40.2415 36.858ZM14.341 35.883C13.7485 35.883 13.408 36.3165 13.408 36.858C13.408 37.3995 13.75 37.833 14.341 37.833C14.8825 37.833 15.2485 37.425 15.2485 36.858C15.2395 36.3165 14.8825 35.883 14.341 35.883ZM24.133 35.859C23.683 35.859 23.407 36.15 23.341 36.5835H24.9325C24.8575 36.108 24.5665 35.859 24.133 35.859ZM33.1165 35.883C32.5495 35.883 32.209 36.3165 32.209 36.858C32.209 37.3995 32.551 37.833 33.1165 37.833C33.6835 37.833 34.0495 37.425 34.0495 36.858C34.0495 36.3165 33.682 35.883 33.1165 35.883ZM41.941 38.058C41.941 38.0835 41.9665 38.1 41.9665 38.1495C41.9665 38.175 41.941 38.1915 41.941 38.241C41.9155 38.2665 41.9155 38.283 41.899 38.307C41.8735 38.3325 41.857 38.349 41.8075 38.349C41.782 38.3745 41.7655 38.3745 41.716 38.3745C41.6905 38.3745 41.674 38.3745 41.6245 38.349C41.599 38.349 41.5825 38.3235 41.5585 38.307C41.533 38.2815 41.5165 38.265 41.5165 38.241C41.491 38.199 41.491 38.175 41.491 38.1495C41.491 38.1075 41.491 38.0835 41.5165 38.058C41.5165 38.016 41.542 37.992 41.5585 37.9665C41.584 37.941 41.6005 37.941 41.6245 37.9245C41.6665 37.899 41.6905 37.899 41.716 37.899C41.758 37.899 41.782 37.899 41.8075 37.9245C41.8495 37.9485 41.8735 37.9485 41.899 37.9665C41.9245 37.9845 41.9155 38.016 41.941 38.058ZM41.758 38.175C41.8 38.175 41.8 38.1495 41.824 38.1495C41.8495 38.124 41.8495 38.1075 41.8495 38.0835C41.8495 38.0595 41.8495 38.0415 41.824 38.0175C41.8 38.0175 41.782 37.992 41.7325 37.992H41.599V38.283H41.665V38.166H41.6905L41.782 38.283H41.848L41.758 38.175ZM47.9995 9.417V38.751C47.9991 39.8119 47.5775 40.8292 46.8274 41.5793C46.0772 42.3295 45.0599 42.7511 43.999 42.7515H3.99855C2.93767 42.7511 1.92036 42.3295 1.17021 41.5793C0.420052 40.8292 -0.00155557 39.8119 -0.00195312 38.751V9.417C-0.00155557 8.35613 0.420052 7.33882 1.17021 6.58866C1.92036 5.83851 2.93767 5.4169 3.99855 5.4165H43.999C45.0599 5.4169 46.0772 5.83851 46.8274 6.58866C47.5775 7.33882 47.9991 8.35613 47.9995 9.417ZM5.33355 21.0495C5.33355 27.4245 10.5085 32.5905 16.8745 32.5905C19.1417 32.584 21.3575 31.9151 23.2495 30.666C17.1745 25.725 17.2165 16.3995 23.2495 11.457C21.3594 10.204 19.1423 9.53467 16.8745 9.5325C10.5085 9.525 5.33355 14.6985 5.33355 21.0495ZM23.9995 30.117C29.875 25.533 29.8495 16.6005 23.9995 11.9925C18.1495 16.6005 18.124 25.542 23.9995 30.117ZM12.1405 36.4755C12.1405 35.751 11.665 35.2755 10.915 35.25C10.531 35.25 10.123 35.367 9.84855 35.7915C9.64905 35.4495 9.30705 35.25 8.83155 35.25C8.65876 35.2474 8.48795 35.287 8.33397 35.3654C8.17999 35.4438 8.0475 35.5587 7.94805 35.7V35.334H7.26555V38.3925H7.94805C7.94805 36.8175 7.73955 35.8755 8.69805 35.8755C9.54855 35.8755 9.38205 36.726 9.38205 38.3925H10.0405C10.0405 36.867 9.83205 35.8755 10.7905 35.8755C11.641 35.8755 11.473 36.7095 11.473 38.3925H12.157V36.4755H12.1405ZM15.883 35.334H15.2245V35.7C15.108 35.5546 14.9592 35.4383 14.79 35.3602C14.6208 35.2821 14.4358 35.2444 14.2495 35.25C13.3915 35.25 12.733 35.934 12.733 36.858C12.733 37.791 13.3915 38.466 14.2495 38.466C14.683 38.466 14.9995 38.307 15.2245 38.016V38.4H15.883V35.334ZM19.258 37.467C19.258 36.2175 17.35 36.783 17.35 36.1995C17.35 35.724 18.3415 35.8005 18.892 36.108L19.1665 35.5665C18.3835 35.058 16.6495 35.067 16.6495 36.2505C16.6495 37.4415 18.5575 36.942 18.5575 37.5C18.5575 38.025 17.4325 37.983 16.8325 37.566L16.5415 38.091C17.4745 38.724 19.258 38.5905 19.258 37.4655V37.467ZM22.2085 38.241L22.0255 37.674C21.709 37.848 21.0085 38.04 21.0085 37.332V35.949H22.1005V35.3325H21.0085V34.3995H20.3245V35.3325H19.6915V35.9415H20.3245V37.3335C20.3245 38.8005 21.766 38.5335 22.2085 38.241ZM23.3155 37.125H25.6075C25.6075 35.775 24.991 35.241 24.157 35.241C23.2735 35.241 22.6405 35.8995 22.6405 36.849C22.6405 38.5575 24.5245 38.841 25.4575 38.0325L25.141 37.533C24.4915 38.067 23.5075 38.016 23.3155 37.125ZM28.2415 35.334C27.859 35.1675 27.2755 35.184 26.9755 35.7V35.334H26.2915V38.3925H26.9755V36.6675C26.9755 35.7 27.7675 35.826 28.042 35.967L28.2415 35.334ZM29.125 36.858C29.125 35.907 30.0925 35.5995 30.85 36.1575L31.1665 35.616C30.199 34.8585 28.441 35.274 28.441 36.8655C28.441 38.5155 30.307 38.8485 31.1665 38.115L30.85 37.5735C30.0835 38.115 29.125 37.791 29.125 36.8565V36.858ZM34.6825 35.334H33.9985V35.7C33.307 34.7835 31.507 35.301 31.507 36.858C31.507 38.4585 33.373 38.916 33.9985 38.016V38.4H34.6825V35.334ZM37.4905 35.334C37.291 35.2335 36.574 35.0925 36.2245 35.7V35.334H35.566V38.3925H36.2245V36.6675C36.2245 35.751 36.9745 35.8095 37.291 35.967L37.4905 35.334ZM40.849 34.092H40.1905V35.7C39.5065 34.7925 37.699 35.2755 37.699 36.858C37.699 38.475 39.574 38.907 40.1905 38.016V38.4H40.849V34.092ZM41.4835 27.834V28.218H41.5495V27.834H41.707V27.768H41.323V27.834H41.4835ZM42.0325 38.1495C42.0325 38.1075 42.0325 38.058 42.0085 38.016C41.983 37.9905 41.9665 37.95 41.9425 37.9245C41.9185 37.899 41.8765 37.8825 41.851 37.8585C41.809 37.8585 41.7595 37.833 41.7175 37.833C41.692 37.833 41.6515 37.8585 41.6005 37.8585C41.5676 37.877 41.537 37.8991 41.509 37.9245C41.467 37.9485 41.443 37.9905 41.443 38.016C41.4175 38.058 41.4175 38.1075 41.4175 38.1495C41.4175 38.175 41.4175 38.2155 41.443 38.2665C41.443 38.292 41.4685 38.3325 41.509 38.358C41.5344 38.3864 41.5656 38.4089 41.6005 38.424C41.6425 38.448 41.692 38.448 41.7175 38.448C41.7595 38.448 41.809 38.448 41.851 38.424C41.8765 38.3985 41.917 38.382 41.9425 38.358C41.968 38.334 41.9845 38.292 42.0085 38.2665C42.0325 38.217 42.0325 38.175 42.0325 38.1495ZM42.2995 27.759H42.1825L42.049 28.05L41.9155 27.759H41.7985V28.209H41.8645V27.867L41.998 28.158H42.0895L42.2065 27.867V28.209H42.298L42.2995 27.759ZM42.6655 21.0495C42.6655 14.6985 37.4905 9.525 31.1245 9.525C28.8573 9.53069 26.6412 10.1997 24.7495 11.4495C30.7585 16.392 30.85 25.7415 24.7495 30.6585C26.6407 31.9094 28.8571 32.5785 31.1245 32.583C37.4905 32.592 42.6655 27.4245 42.6655 21.0495Z" fill="black"/>
</g>
<defs>
<clipPath id="clip0_145_136">
<rect width="48" height="48" fill="white"/>
</clipPath>
</defs>
</svg>
