<svg width="37" height="37" viewBox="0 0 37 37" fill="none" xmlns="http://www.w3.org/2000/svg">
<g clip-path="url(#clip0_145_131)">
<path d="M32.5133 8.58631C32.7908 6.10963 32.2982 4.34981 30.8899 2.74494C29.2018 0.82325 26.1585 0 22.2597 0H10.9469C10.5618 0.000166768 10.1894 0.137627 9.89648 0.387693C9.60361 0.63776 9.40948 0.98405 9.34897 1.36437L4.63609 31.2396C4.61401 31.3783 4.6223 31.5202 4.66038 31.6554C4.69846 31.7907 4.76543 31.916 4.85667 32.0229C4.9479 32.1297 5.06123 32.2155 5.18884 32.2743C5.31644 32.3331 5.45528 32.3635 5.59578 32.3634H11.969L11.5019 35.3234C11.4692 35.5307 11.4817 35.7426 11.5387 35.9445C11.5957 36.1464 11.6958 36.3336 11.832 36.4932C11.9683 36.6527 12.1375 36.7809 12.328 36.8687C12.5185 36.9566 12.7258 37.0022 12.9357 37.0023H18.8233C19.8153 37.0023 20.6571 36.2854 20.8167 35.3119L20.8745 35.0112L21.9845 27.9743L22.0538 27.5951L22.0562 27.5789C22.086 27.3871 22.1836 27.2123 22.3313 27.0863C22.4789 26.9603 22.6668 26.8914 22.8609 26.8921H23.7397C26.6673 26.8921 29.3475 26.3001 31.475 24.7877C32.3514 24.1633 33.1215 23.3932 33.7713 22.4636C34.8504 20.9613 35.5487 19.2194 35.8063 17.3877C36.3659 14.5063 36.1069 11.9394 34.4882 10.0941C33.9892 9.53724 33.3938 9.07504 32.7307 8.72969L32.5133 8.58862V8.58631ZM15.1302 20.3962C15.3594 20.2765 15.614 20.2139 15.8725 20.2136H19.1933C25.7145 20.2136 30.8182 17.5681 32.3098 9.90906L32.3167 9.87206C32.8185 10.1588 33.2417 10.4964 33.584 10.8849C34.8466 12.3256 35.1542 14.4346 34.6246 17.1518C33.9956 20.3824 32.622 22.4868 30.7789 23.7979C28.9243 25.1161 26.5193 25.6826 23.742 25.6826H22.8632C22.3831 25.682 21.9184 25.8525 21.5526 26.1636C21.1869 26.4747 20.944 26.906 20.8675 27.38L20.7982 27.7592L19.6882 34.7962L19.6327 35.0968L19.6303 35.1061C19.5995 35.2972 19.5016 35.4711 19.3541 35.5966C19.2066 35.7221 19.0192 35.7908 18.8256 35.7906H12.938C12.9024 35.7907 12.8672 35.7831 12.8348 35.7682C12.8025 35.7534 12.7738 35.7317 12.7507 35.7046C12.7276 35.6775 12.7106 35.6457 12.701 35.6115C12.6915 35.5772 12.6894 35.5413 12.6952 35.5061L13.1762 32.4536L15.1302 20.3962Z" fill="black"/>
</g>
<defs>
<clipPath id="clip0_145_131">
<rect width="37" height="37" fill="white"/>
</clipPath>
</defs>
</svg>
