<svg width="47" height="43" viewBox="0 0 47 43" fill="none" xmlns="http://www.w3.org/2000/svg">
<path d="M38.3589 19.4256C38.3589 19.4256 38.979 22.5498 39.1177 23.2049H36.3924C36.6616 22.4574 37.6979 19.5516 37.6979 19.5516C37.6816 19.5768 37.9672 18.7873 38.1304 18.3002L38.3589 19.4256ZM47 6.71875V36.2812C47 38.5068 45.2457 40.3125 43.0833 40.3125H3.91667C1.75434 40.3125 0 38.5068 0 36.2812V6.71875C0 4.49316 1.75434 2.6875 3.91667 2.6875H43.0833C45.2457 2.6875 47 4.49316 47 6.71875ZM12.4436 27.8156L17.6005 14.7812H14.1326L10.9259 23.6836L10.575 21.8779L9.43264 15.8814C9.24497 15.05 8.66563 14.8148 7.94757 14.7812H2.66823L2.61111 15.0416C3.90035 15.3775 5.05087 15.8646 6.05451 16.4777L8.97569 27.8156H12.4436ZM20.1464 27.8324L22.2026 14.7812H18.9224L16.8743 27.8324H20.1464ZM31.5618 23.566C31.5781 22.0795 30.6969 20.9457 28.812 20.0135C27.6615 19.4172 26.9597 19.0141 26.9597 18.401C26.976 17.8467 27.5554 17.2756 28.8446 17.2756C29.9135 17.2504 30.6969 17.5107 31.2844 17.7711L31.5781 17.9139L32.0269 15.092C31.3823 14.8316 30.3542 14.5377 29.0894 14.5377C25.85 14.5377 23.5734 16.3182 23.5571 18.8545C23.5326 20.7273 25.1891 21.7688 26.4293 22.3986C27.6941 23.0369 28.1266 23.4568 28.1266 24.0195C28.1102 24.893 27.0984 25.2961 26.1601 25.2961C24.8545 25.2961 24.1528 25.0861 23.0839 24.599L22.6514 24.3891L22.1944 27.3201C22.9615 27.6812 24.3813 28.0004 25.85 28.0172C29.2934 28.0256 31.5373 26.2703 31.5618 23.566ZM43.0833 27.8324L40.4396 14.7812H37.9019C37.1186 14.7812 36.5229 15.0164 36.1884 15.8646L31.317 27.8324H34.7604C34.7604 27.8324 35.3234 26.2199 35.4458 25.8756H39.6562C39.7542 26.3375 40.0479 27.8324 40.0479 27.8324H43.0833Z" fill="black"/>
</svg>
