<svg width="37" height="37" viewBox="0 0 37 37" fill="none" xmlns="http://www.w3.org/2000/svg">
<g clip-path="url(#clip0_145_156)">
<path d="M19.1406 0.194141C18.9508 0.0678614 18.7279 0.000488281 18.5 0.000488281C18.2721 0.000488281 18.0492 0.0678614 17.8594 0.194141L0.515688 11.7566C0.30929 11.8943 0.152628 12.0946 0.0688412 12.3281C-0.0149452 12.5616 -0.0214127 12.8159 0.0503939 13.0533C0.122201 13.2908 0.268474 13.4988 0.467607 13.6468C0.666741 13.7947 0.908176 13.8747 1.15625 13.8749H5.49219V30.0624H3.46875C3.16209 30.0624 2.868 30.1842 2.65116 30.401C2.43432 30.6179 2.3125 30.912 2.3125 31.2186C2.3125 31.5253 2.43432 31.8194 2.65116 32.0362C2.868 32.2531 3.16209 32.3749 3.46875 32.3749H33.5312C33.8379 32.3749 34.132 32.2531 34.3488 32.0362C34.5657 31.8194 34.6875 31.5253 34.6875 31.2186C34.6875 30.912 34.5657 30.6179 34.3488 30.401C34.132 30.1842 33.8379 30.0624 33.5312 30.0624H31.5078V13.8749H35.8438C36.0918 13.8747 36.3333 13.7947 36.5324 13.6468C36.7315 13.4988 36.8778 13.2908 36.9496 13.0533C37.0214 12.8159 37.0149 12.5616 36.9312 12.3281C36.8474 12.0946 36.6907 11.8943 36.4843 11.7566L19.1406 0.194141ZM28.6172 13.8749V30.0624H25.7266V13.8749H28.6172ZM22.8359 13.8749V30.0624H19.9453V13.8749H22.8359ZM17.0547 13.8749V30.0624H14.1641V13.8749H17.0547ZM11.2734 13.8749V30.0624H8.38281V13.8749H11.2734ZM18.5 9.24989C17.8867 9.24989 17.2985 9.00625 16.8648 8.57258C16.4311 8.1389 16.1875 7.5507 16.1875 6.93739C16.1875 6.32408 16.4311 5.73588 16.8648 5.30221C17.2985 4.86853 17.8867 4.62489 18.5 4.62489C19.1133 4.62489 19.7015 4.86853 20.1352 5.30221C20.5689 5.73588 20.8125 6.32408 20.8125 6.93739C20.8125 7.5507 20.5689 8.1389 20.1352 8.57258C19.7015 9.00625 19.1133 9.24989 18.5 9.24989ZM1.15625 34.6874C0.849593 34.6874 0.555497 34.8092 0.338658 35.026C0.121819 35.2429 0 35.537 0 35.8436C0 36.1503 0.121819 36.4444 0.338658 36.6612C0.555497 36.8781 0.849593 36.9999 1.15625 36.9999H35.8438C36.1504 36.9999 36.4445 36.8781 36.6613 36.6612C36.8782 36.4444 37 36.1503 37 35.8436C37 35.537 36.8782 35.2429 36.6613 35.026C36.4445 34.8092 36.1504 34.6874 35.8438 34.6874H1.15625Z" fill="black"/>
</g>
<defs>
<clipPath id="clip0_145_156">
<rect width="37" height="37" fill="white"/>
</clipPath>
</defs>
</svg>
