<svg width="24" height="24" viewBox="0 0 24 24" fill="none" xmlns="http://www.w3.org/2000/svg">
<path d="M14.7419 1.083C14.8404 1.08282 14.9381 1.10207 15.0292 1.13965C15.1203 1.17723 15.2031 1.2324 15.2729 1.302L22.6979 8.727C22.8385 8.86765 22.9175 9.05838 22.9175 9.25725C22.9175 9.45612 22.8385 9.64685 22.6979 9.7875C21.9779 10.5075 21.0899 10.6695 20.4434 10.6695C20.1779 10.6695 19.9409 10.6425 19.7534 10.611L15.0524 15.312C15.1761 15.8106 15.2564 16.319 15.2924 16.8315C15.3614 17.8845 15.2444 19.362 14.2124 20.394C14.0717 20.5346 13.881 20.6136 13.6821 20.6136C13.4833 20.6136 13.2925 20.5346 13.1519 20.394L8.90838 16.152L4.13538 20.925C3.84288 21.2175 2.30688 22.278 2.01438 21.9855C1.72188 21.693 2.78238 20.1555 3.07488 19.8645L7.84788 15.0915L3.60588 10.848C3.46528 10.7074 3.38629 10.5166 3.38629 10.3177C3.38629 10.1189 3.46528 9.92815 3.60588 9.7875C4.63788 8.7555 6.11538 8.637 7.16838 8.7075C7.68087 8.74341 8.18928 8.82371 8.68788 8.9475L13.3889 4.248C13.3496 4.01957 13.3296 3.78827 13.3289 3.5565C13.3289 2.9115 13.4909 2.0235 14.2124 1.302C14.3529 1.1618 14.5434 1.08304 14.7419 1.083ZM14.9249 4.251V4.248V4.251ZM14.9249 4.248V4.251C14.9682 4.38295 14.974 4.52434 14.9417 4.65942C14.9094 4.79449 14.8402 4.91793 14.7419 5.016L9.43938 10.317C9.34086 10.4151 9.21701 10.4839 9.08165 10.5157C8.9463 10.5475 8.80478 10.541 8.67288 10.497H8.66988L8.64888 10.491C8.50618 10.4483 8.3621 10.4102 8.21688 10.377C7.83954 10.289 7.45586 10.2308 7.06938 10.203C6.43638 10.161 5.81538 10.215 5.30688 10.428L13.5719 18.6915C13.7834 18.1815 13.8374 17.562 13.7954 16.929C13.7572 16.3931 13.6606 15.863 13.5074 15.348L13.5014 15.3285V15.327C13.4571 15.1949 13.4505 15.0531 13.4823 14.9174C13.5141 14.7818 13.583 14.6577 13.6814 14.559L18.9854 9.2565C19.0875 9.15374 19.2172 9.08276 19.3589 9.05215C19.5005 9.02154 19.6479 9.0326 19.7834 9.084L19.9274 9.117C20.0579 9.1425 20.2394 9.168 20.4434 9.168C20.6144 9.168 20.7884 9.1515 20.9579 9.108L14.8904 3.042C14.8469 3.2115 14.8304 3.387 14.8304 3.5565C14.8311 3.78957 14.8624 4.02155 14.9234 4.2465L14.9249 4.248Z" fill="#00A6BB"/>
</svg>
