<svg width="15" height="15" viewBox="0 0 15 15" fill="none" xmlns="http://www.w3.org/2000/svg">
<path d="M0 2.14286C0 1.57454 0.225765 1.02949 0.627628 0.627628C1.02949 0.225765 1.57454 0 2.14286 0H11.1204C11.6886 0.000121366 12.2336 0.225966 12.6354 0.627857L14.3721 2.36464C14.774 2.76641 14.9999 3.31137 15 3.87964V12.8571C15 13.4255 14.7742 13.9705 14.3724 14.3724C13.9705 14.7742 13.4255 15 12.8571 15H2.14286C1.57454 15 1.02949 14.7742 0.627628 14.3724C0.225765 13.9705 0 13.4255 0 12.8571V2.14286ZM2.14286 1.07143C1.8587 1.07143 1.58617 1.18431 1.38524 1.38524C1.18431 1.58617 1.07143 1.8587 1.07143 2.14286V12.8571C1.07143 13.1413 1.18431 13.4138 1.38524 13.6148C1.58617 13.8157 1.8587 13.9286 2.14286 13.9286V9.10714C2.14286 8.6809 2.31218 8.27212 2.61358 7.97072C2.91498 7.66932 3.32376 7.5 3.75 7.5H11.25C11.6762 7.5 12.085 7.66932 12.3864 7.97072C12.6878 8.27212 12.8571 8.6809 12.8571 9.10714V13.9286C13.1413 13.9286 13.4138 13.8157 13.6148 13.6148C13.8157 13.4138 13.9286 13.1413 13.9286 12.8571V3.87964C13.9285 3.59551 13.8156 3.32303 13.6146 3.12214L11.8779 1.38536C11.677 1.18441 11.4045 1.07149 11.1204 1.07143H10.7143V3.75C10.7143 4.17624 10.545 4.58502 10.2436 4.88642C9.94217 5.18782 9.53338 5.35714 9.10714 5.35714H4.82143C4.39519 5.35714 3.9864 5.18782 3.68501 4.88642C3.38361 4.58502 3.21429 4.17624 3.21429 3.75V1.07143H2.14286ZM4.28571 1.07143V3.75C4.28571 3.89208 4.34216 4.02834 4.44262 4.12881C4.54309 4.22927 4.67935 4.28571 4.82143 4.28571H9.10714C9.24922 4.28571 9.38548 4.22927 9.48595 4.12881C9.58642 4.02834 9.64286 3.89208 9.64286 3.75V1.07143H4.28571ZM11.7857 13.9286V9.10714C11.7857 8.96506 11.7293 8.8288 11.6288 8.72834C11.5283 8.62787 11.3921 8.57143 11.25 8.57143H3.75C3.60792 8.57143 3.47166 8.62787 3.37119 8.72834C3.27073 8.8288 3.21429 8.96506 3.21429 9.10714V13.9286H11.7857Z" fill="#B9B9B9"/>
</svg>
