<svg width="20" height="12" viewBox="0 0 20 12" fill="none" xmlns="http://www.w3.org/2000/svg">
<path fill-rule="evenodd" clip-rule="evenodd" d="M0.469 0.968387C0.538668 0.898542 0.621432 0.843128 0.71255 0.805318C0.803667 0.767508 0.901349 0.748047 1 0.748047C1.09865 0.748047 1.19633 0.767508 1.28745 0.805318C1.37857 0.843128 1.46133 0.898542 1.531 0.968387L10 9.43889L18.469 0.968387C18.5387 0.898655 18.6215 0.843341 18.7126 0.805602C18.8037 0.767863 18.9014 0.74844 19 0.74844C19.0986 0.74844 19.1963 0.767863 19.2874 0.805602C19.3785 0.843341 19.4613 0.898655 19.531 0.968387C19.6007 1.03812 19.656 1.1209 19.6938 1.21201C19.7315 1.30312 19.7509 1.40077 19.7509 1.49939C19.7509 1.598 19.7315 1.69565 19.6938 1.78676C19.656 1.87787 19.6007 1.96066 19.531 2.03039L10.531 11.0304C10.4613 11.1002 10.3786 11.1556 10.2874 11.1935C10.1963 11.2313 10.0987 11.2507 10 11.2507C9.90135 11.2507 9.80367 11.2313 9.71255 11.1935C9.62143 11.1556 9.53867 11.1002 9.469 11.0304L0.469 2.03039C0.399155 1.96072 0.343741 1.87796 0.305931 1.78684C0.268121 1.69572 0.248659 1.59804 0.248659 1.49939C0.248659 1.40074 0.268121 1.30305 0.305931 1.21194C0.343741 1.12082 0.399155 1.03806 0.469 0.968387Z" fill="#878787"/>
</svg>
