<svg width="18" height="18" viewBox="0 0 18 18" fill="none" xmlns="http://www.w3.org/2000/svg">
<path fill-rule="evenodd" clip-rule="evenodd" d="M15.5858 2.4133C15.6382 2.46555 15.6798 2.52763 15.7081 2.59596C15.7365 2.6643 15.7511 2.73756 15.7511 2.81155C15.7511 2.88554 15.7365 2.9588 15.7081 3.02714C15.6798 3.09548 15.6382 3.15755 15.5858 3.2098L3.21083 15.5848C3.10521 15.6904 2.96196 15.7498 2.81258 15.7498C2.66321 15.7498 2.51996 15.6904 2.41433 15.5848C2.30871 15.4792 2.24937 15.3359 2.24937 15.1866C2.24937 15.0372 2.30871 14.8939 2.41433 14.7883L14.7893 2.4133C14.8416 2.36092 14.9037 2.31936 14.972 2.291C15.0403 2.26264 15.1136 2.24805 15.1876 2.24805C15.2616 2.24805 15.3348 2.26264 15.4032 2.291C15.4715 2.31936 15.5336 2.36092 15.5858 2.4133Z" fill="#878787"/>
<path fill-rule="evenodd" clip-rule="evenodd" d="M2.41425 2.4133C2.36187 2.46555 2.32031 2.52763 2.29195 2.59596C2.26359 2.6643 2.24899 2.73756 2.24899 2.81155C2.24899 2.88554 2.26359 2.9588 2.29195 3.02714C2.32031 3.09548 2.36187 3.15755 2.41425 3.2098L14.7892 15.5848C14.8949 15.6904 15.0381 15.7498 15.1875 15.7498C15.3369 15.7498 15.4801 15.6904 15.5857 15.5848C15.6914 15.4792 15.7507 15.3359 15.7507 15.1866C15.7507 15.0372 15.6914 14.8939 15.5857 14.7883L3.21075 2.4133C3.1585 2.36092 3.09643 2.31936 3.02809 2.291C2.95975 2.26264 2.88649 2.24805 2.8125 2.24805C2.73851 2.24805 2.66525 2.26264 2.59691 2.291C2.52857 2.31936 2.4665 2.36092 2.41425 2.4133Z" fill="#878787"/>
</svg>
